HIERARCHY
ROOT Hips
{
  OFFSET 0.000000 0.000000 0.000000
  CHANNELS 6 Xposition Yposition Zposition Zrotation Yrotation Xrotation
  JOINT Spine
  {
    OFFSET -0.015866 2.161571 -0.123088
    CHANNELS 3 Zrotation Yrotation Xrotation
    JOINT Spine1
    {
      OFFSET 0.047270 2.166742 -0.035688
      CHANNELS 3 Zrotation Yrotation Xrotation
      JOINT Spine2
      {
        OFFSET 0.051304 2.168585 0.023627
        CHANNELS 3 Zrotation Yrotation Xrotation
        JOINT Neck
        {
          OFFSET -0.085860 1.603348 0.327826
          CHANNELS 3 Zrotation Yrotation Xrotation
          JOINT Head
          {
            OFFSET 0.033864 1.694337 -0.145844
            CHANNELS 3 Zrotation Yrotation Xrotation
            End Site
            {
              OFFSET 0 0 0
            }
          }
        }
        JOINT LeftShoulder
        {
          OFFSET 3.173933 1.019010 -0.528970
          CHANNELS 3 Zrotation Yrotation Xrotation
          JOINT LeftArm
          {
            OFFSET 5.252870 -0.000000 -0.000000
            CHANNELS 3 Zrotation Yrotation Xrotation
            JOINT LeftForeArm
            {
              OFFSET 3.510140 -0.000000 0.000000
              CHANNELS 3 Zrotation Yrotation Xrotation
              JOINT LeftHand
              {
                OFFSET 0.706179 -0.000000 -0.000000
                CHANNELS 3 Zrotation Yrotation Xrotation
                JOINT LeftHandIndex1
                {
                  OFFSET 0.569339 -0.000000 -0.000000
                  CHANNELS 3 Zrotation Yrotation Xrotation
                  End Site
                  {
                    OFFSET 0 0 0
                  }
                }
              }
            }
          }
        }
        JOINT RightShoulder
        {
          OFFSET -2.994711 1.264946 -0.611251
          CHANNELS 3 Zrotation Yrotation Xrotation
          JOINT RightArm
          {
            OFFSET -5.287210 -0.000000 -0.000000
            CHANNELS 3 Zrotation Yrotation Xrotation
            JOINT RightForeArm
            {
              OFFSET -3.505440 -0.000000 0.000000
              CHANNELS 3 Zrotation Yrotation Xrotation
              JOINT RightHand
              {
                OFFSET -0.884996 -0.000000 -0.000000
                CHANNELS 3 Zrotation Yrotation Xrotation
                JOINT RightHandIndex1
                {
                  OFFSET -0.713507 -0.000000 -0.000000
                  CHANNELS 3 Zrotation Yrotation Xrotation
                  End Site
                  {
                    OFFSET 0 0 0
                  }
                }
              }
            }
          }
        }
      }
    }
  }
  JOINT LeftUpLeg
  {
    OFFSET 2.501716 -6.873413 0.000000
    CHANNELS 3 Zrotation Yrotation Xrotation
    JOINT LeftLeg
    {
      OFFSET 2.675229 -7.350138 0.000000
      CHANNELS 3 Zrotation Yrotation Xrotation
      JOINT LeftFoot
      {
        OFFSET 0.174460 -0.479325 2.131547
        CHANNELS 3 Zrotation Yrotation Xrotation
        JOINT LeftToeBase
        {
          OFFSET 0.000000 -0.000000 1.100230
          CHANNELS 3 Zrotation Yrotation Xrotation
          End Site
          {
            OFFSET 0 0 0
          }
        }
      }
    }
  }
  JOINT RightUpLeg
  {
    OFFSET -2.597892 -7.137654 0.000000
    CHANNELS 3 Zrotation Yrotation Xrotation
    JOINT RightLeg
    {
      OFFSET -2.621248 -7.201826 0.000000
      CHANNELS 3 Zrotation Yrotation Xrotation
      JOINT RightFoot
      {
        OFFSET -0.312867 -0.859598 2.078137
        CHANNELS 3 Zrotation Yrotation Xrotation
        JOINT RightToeBase
        {
          OFFSET -0.000000 -0.000000 1.117660
          CHANNELS 3 Zrotation Yrotation Xrotation
          End Site
          {
            OFFSET 0 0 0
          }
        }
      }
    }
  }
}
MOTION
Frames: 5
Frame Time: 0.00833333
9.247400 14.372700 -12.494000 12.601300 16.949200 23.406500 -9.828740 21.089200 -41.749400 0.000000 0.000000 64.010300 -1.232590 0.000000 -24.004100 0.000000 0.000000 -32.713700 -12.768300 -29.817800 -61.055600 0.000000 0.000000 62.748400 -0.594143 0.000000 -10.222500 0.000000 0.000000 -35.015200 9.469680 3.090930 33.747500 9.340460 9.483910 0.418099 1.093590 3.686210 -17.278300 -14.414000 -12.900900 -18.272700 2.961120 -7.101970 7.169600 0.000000 0.000000 0.000000 88.212500 -56.580500 18.038100 0.000000 0.000000 74.043900 68.142200 0.000000 -16.354600 0.000000 0.000000 7.125020 0.000000 0.000000 0.000000 -76.945600 -10.581200 46.729000 0.000000 0.000000 103.760000 1.053140 0.000000 -9.088820 0.000000 0.000000 7.125020
9.252800 14.343200 -12.513700 11.846300 17.137400 23.243600 -9.011390 21.567300 -42.197100 0.000000 0.000000 64.575700 -1.407700 0.000000 -24.128600 0.000000 0.000000 -32.670500 -11.941900 -29.703100 -61.317900 0.000000 0.000000 62.866900 -0.606890 0.000000 -10.283600 0.000000 0.000000 -35.209500 9.823240 2.918720 33.755600 9.355870 9.400610 0.424455 0.970166 3.625690 -17.214300 -14.465600 -12.831300 -18.545300 3.090610 -7.021960 7.278790 0.000000 -0.000000 0.000000 88.004700 -56.065100 18.116200 0.000000 0.000000 74.312100 68.557100 0.000000 -16.619600 0.000000 0.000000 7.125020 0.000000 -0.000000 0.000000 -74.549500 -9.150540 46.435600 0.000000 0.000000 104.554000 1.186130 0.000000 -7.874120 0.000000 0.000000 7.125020
9.259550 14.313300 -12.532900 11.115800 17.212000 22.897900 -8.170660 22.059100 -42.400500 0.000000 0.000000 65.243600 -1.400770 0.000000 -24.398900 0.000000 0.000000 -33.595100 -11.297600 -29.428900 -61.410200 0.000000 0.000000 62.986800 -0.647645 0.000000 -10.313400 0.000000 0.000000 -34.991600 9.991960 2.768500 33.977700 9.406490 9.311000 0.464575 0.970926 3.572160 -17.245500 -14.542900 -12.601700 -18.108800 3.337900 -6.893580 7.096350 0.000000 0.000000 0.000000 88.160200 -55.359900 17.695800 0.000000 0.000000 75.011400 69.310300 0.000000 -13.938300 0.000000 0.000000 7.125020 0.000000 0.000000 0.000000 -72.159100 -7.483100 46.288200 0.000000 0.000000 105.045000 1.452300 0.000000 -7.155680 0.000000 0.000000 7.125020
9.264980 14.287400 -12.551800 10.737700 17.127700 22.883900 -7.888160 22.509600 -42.899900 0.000000 0.000000 65.907400 -1.124850 0.000000 -24.617700 0.000000 0.000000 -34.895800 -10.972100 -29.214900 -61.740600 0.000000 0.000000 63.103000 -0.705315 0.000000 -10.320300 0.000000 0.000000 -34.665300 9.919380 2.736250 33.895100 9.282550 9.195900 0.493553 0.926641 3.529530 -17.158400 -14.404100 -12.428200 -17.694900 3.462950 -6.819190 6.877780 0.000000 0.000000 0.000000 88.380300 -54.716300 17.299900 0.000000 0.000000 75.990600 69.614200 0.000000 -16.323000 0.000000 0.000000 7.125020 0.000000 0.000000 0.000000 -70.123900 -6.133530 46.035400 0.000000 0.000000 105.693000 1.957740 0.000000 -6.601360 0.000000 0.000000 7.125020
9.273900 14.258300 -12.571300 10.311600 17.134100 23.134300 -7.599650 22.881800 -43.699500 0.000000 0.000000 66.574000 -1.209470 0.000000 -24.913300 0.000000 0.000000 -34.684900 -10.410000 -29.260300 -62.367000 0.000000 0.000000 63.235900 -0.615957 0.000000 -10.387900 0.000000 0.000000 -34.608500 10.003700 2.643730 33.385200 9.044830 8.969970 0.530772 0.748169 3.441680 -16.821200 -14.211700 -12.412300 -17.784700 3.540950 -6.805230 6.832460 -0.000000 -0.000000 0.000000 87.919100 -54.181600 17.764700 0.000000 0.000000 76.229100 69.500300 0.000000 -15.092900 0.000000 0.000000 7.125020 -0.000000 -0.000000 0.000000 -68.767700 -5.014410 45.658900 0.000000 0.000000 106.453000 2.433660 0.000000 -5.449510 0.000000 0.000000 7.125020
